C:\Users\nbianco\repos\ankle-perturb-sim\results\experiments\subject18\walk2\expdata\ground_reaction_unfiltered.mot
version=1
nRows=38
nColumns=19
inDegrees=no
endheader
time	ground_force_r_vx	ground_force_r_vy	ground_force_r_vz	ground_force_r_px	ground_force_r_py	ground_force_r_pz	ground_force_l_vx	ground_force_l_vy	ground_force_l_vz	ground_force_l_px	ground_force_l_py	ground_force_l_pz	ground_torque_r_x	ground_torque_r_y	ground_torque_r_z	ground_torque_l_x	ground_torque_l_y	ground_torque_l_z
3.958333	14.024102	563.068720	-27.394677	0.663017	0.000000	-0.399969	0.000002	-0.000003	0.000000	-0.000000	-0.000000	0.000000	0.000000	2.847186	0.000000	0.000000	0.000000	0.000000
3.959375	14.697088	563.603176	-27.539429	0.661778	0.000000	-0.399974	0.000003	-0.000004	0.000000	-0.000000	-0.000000	0.000000	0.000000	2.871729	0.000000	0.000000	0.000000	0.000000
3.960417	15.375292	564.146380	-27.678633	0.660539	0.000000	-0.399980	0.000003	-0.000005	0.000000	-0.000000	-0.000000	0.000000	0.000000	2.896353	0.000000	0.000000	0.000000	0.000000
3.961458	16.057891	564.699809	-27.811581	0.659300	0.000000	-0.399987	0.000003	-0.000006	0.000000	-0.000000	-0.000000	0.000000	0.000000	2.920922	0.000000	0.000000	0.000000	0.000000
3.962500	16.744028	565.265003	-27.937727	0.658063	0.000000	-0.399995	0.000002	-0.000007	0.000000	-0.000000	-0.000000	0.000000	0.000000	2.945291	0.000000	0.000000	0.000000	0.000000
3.963542	17.432833	565.843548	-28.056702	0.656826	0.000000	-0.400003	0.000001	-0.000007	0.000000	-0.000000	-0.000000	0.000000	0.000000	2.969313	0.000000	0.000000	0.000000	0.000000
3.964583	18.123436	566.437049	-28.168318	0.655591	0.000000	-0.400011	0.000000	-0.000006	0.000000	-0.000000	-0.000000	0.000000	0.000000	2.992842	0.000000	0.000000	0.000000	0.000000
3.965625	18.814980	567.047116	-28.272568	0.654358	0.000000	-0.400019	-0.000002	-0.000004	0.000000	-0.000000	-0.000000	0.000000	0.000000	3.015730	0.000000	0.000000	0.000000	0.000000
3.966667	19.506635	567.675327	-28.369622	0.653126	0.000000	-0.400027	-0.000004	-0.000001	-0.000000	0.000000	0.000000	-0.000000	0.000000	3.037832	0.000000	0.000000	0.000000	0.000000
3.967708	20.197609	568.323206	-28.459814	0.651896	0.000000	-0.400034	-0.000006	0.000003	-0.000000	0.000000	0.000000	-0.000000	0.000000	3.059006	0.000000	0.000000	0.000000	0.000000
3.968750	20.887159	568.992191	-28.543631	0.650668	0.000000	-0.400039	-0.000008	0.000007	-0.000001	0.000000	0.000000	-0.000000	0.000000	3.079117	0.000000	0.000000	0.000000	0.000000
3.969792	21.574596	569.683603	-28.621693	0.649442	0.000000	-0.400044	-0.000010	0.000013	-0.000001	0.000001	0.000000	-0.000000	0.000000	3.098037	0.000000	0.000000	0.000000	0.000000
3.970833	22.259300	570.398618	-28.694729	0.648219	0.000000	-0.400047	-0.000011	0.000017	-0.000001	0.000001	0.000000	-0.000000	0.000000	3.115645	0.000000	0.000000	0.000000	0.000000
3.971875	22.940722	571.138237	-28.763554	0.646997	0.000000	-0.400048	-0.000011	0.000022	-0.000002	0.000001	0.000000	-0.000000	0.000000	3.131833	0.000000	0.000000	0.000000	0.000000
3.972917	23.618389	571.903262	-28.829041	0.645778	0.000000	-0.400048	-0.000009	0.000025	-0.000002	0.000001	0.000000	-0.000000	0.000000	3.146501	0.000000	0.000000	0.000000	0.000000
3.973958	24.291914	572.694273	-28.892093	0.644560	0.000000	-0.400046	-0.000007	0.000025	-0.000002	0.000001	0.000000	-0.000000	0.000000	3.159564	0.000000	0.000000	0.000000	0.000000
3.975000	24.961001	573.511612	-28.953613	0.643345	0.000000	-0.400042	-0.000002	0.000023	-0.000001	0.000001	0.000000	-0.000000	0.000000	3.170949	0.000000	0.000000	0.000000	0.000000
3.976042	25.625447	574.355367	-29.014479	0.642131	0.000000	-0.400036	0.000004	0.000017	-0.000001	0.000000	0.000000	-0.000000	0.000000	3.180597	0.000000	0.000000	0.000000	0.000000
3.977083	26.285150	575.225366	-29.075510	0.640918	0.000000	-0.400028	0.000011	0.000008	0.000000	-0.000000	-0.000000	0.000000	0.000000	3.188464	0.000000	0.000000	0.000000	0.000000
3.978125	26.940114	576.121177	-29.137448	0.639707	0.000000	-0.400019	0.000019	-0.000005	0.000001	-0.000001	-0.000000	0.000000	0.000000	3.194521	0.000000	0.000000	0.000000	0.000000
3.979167	27.590454	577.042109	-29.200930	0.638497	0.000000	-0.400008	0.000026	-0.000021	0.000002	-0.000001	-0.000000	0.000001	0.000000	3.198754	0.000000	0.000000	0.000000	0.000000
3.980208	28.236398	577.987229	-29.266473	0.637288	0.000000	-0.399997	0.000033	-0.000039	0.000004	-0.000002	-0.000000	0.000001	0.000000	3.201165	0.000000	0.000000	0.000000	0.000000
3.981250	28.878295	578.955373	-29.334453	0.636080	0.000000	-0.399983	0.000038	-0.000057	0.000005	-0.000002	-0.000000	0.000001	0.000000	3.201770	0.000000	0.000000	0.000000	0.000000
3.982292	29.516614	579.945172	-29.405100	0.634872	0.000000	-0.399970	0.000039	-0.000073	0.000005	-0.000003	-0.000000	0.000001	0.000000	3.200602	0.000000	0.000000	0.000000	0.000000
3.983333	30.151946	580.955078	-29.478490	0.633664	0.000000	-0.399955	0.000036	-0.000085	0.000006	-0.000003	-0.000000	0.000001	0.000000	3.197707	0.000000	0.000000	0.000000	0.000000
3.984375	30.785004	581.983396	-29.554543	0.632456	0.000000	-0.399941	0.000027	-0.000091	0.000006	-0.000003	-0.000000	0.000001	0.000000	3.193146	0.000000	0.000000	0.000000	0.000000
3.985417	31.416619	583.028320	-29.633027	0.631248	0.000000	-0.399926	0.000013	-0.000086	0.000005	-0.000002	-0.000000	0.000001	0.000000	3.186992	0.000000	0.000000	0.000000	0.000000
3.986458	32.047734	584.087966	-29.713569	0.630039	0.000000	-0.399912	-0.000006	-0.000070	0.000003	-0.000001	-0.000000	0.000001	0.000000	3.179333	0.000000	0.000000	0.000000	0.000000
3.987500	32.679394	585.160413	-29.795665	0.628829	0.000000	-0.399898	-0.000030	-0.000041	0.000000	0.000000	0.000000	-0.000000	0.000000	3.170265	0.000000	0.000000	0.000000	0.000000
3.988542	33.312736	586.243737	-29.878703	0.627618	0.000000	-0.399886	-0.000058	0.000001	-0.000003	0.000002	0.000000	-0.000001	0.000000	3.159898	0.000000	0.000000	0.000000	0.000000
3.989583	33.948969	587.336046	-29.961979	0.626406	0.000000	-0.399875	-0.000086	0.000055	-0.000007	0.000004	0.000000	-0.000002	0.000000	3.148350	0.000000	0.000000	0.000000	0.000000
3.990625	34.589358	588.435515	-30.044724	0.625192	0.000000	-0.399865	-0.000112	0.000117	-0.000011	0.000006	0.000000	-0.000003	0.000000	3.135746	0.000000	0.000000	0.000000	0.000000
3.991667	35.235200	589.540409	-30.126128	0.623976	0.000000	-0.399857	-0.000131	0.000182	-0.000015	0.000008	0.000000	-0.000004	0.000000	3.122220	0.000000	0.000000	0.000000	0.000000
3.992708	35.887801	590.649113	-30.205370	0.622758	0.000000	-0.399852	-0.000140	0.000244	-0.000019	0.000010	0.000000	-0.000005	0.000000	3.107908	0.000000	0.000000	0.000000	0.000000
3.993750	36.548446	591.760141	-30.281640	0.621539	0.000000	-0.399848	-0.000134	0.000294	-0.000021	0.000011	0.000000	-0.000005	0.000000	3.092951	0.000000	0.000000	0.000000	0.000000
3.994792	37.218373	592.872158	-30.354172	0.620318	0.000000	-0.399847	-0.000111	0.000322	-0.000021	0.000010	0.000000	-0.000005	0.000000	3.077495	0.000000	0.000000	0.000000	0.000000
3.995833	37.898742	593.983977	-30.422259	0.619095	0.000000	-0.399849	-0.000068	0.000319	-0.000018	0.000009	0.000000	-0.000004	0.000000	3.061681	0.000000	0.000000	0.000000	0.000000
3.996875	38.590608	595.094567	-30.485280	0.617870	0.000000	-0.399853	-0.000004	0.000276	-0.000013	0.000005	0.000000	-0.000003	0.000000	3.045654	0.000000	0.000000	0.000000	0.000000
